<svg width="16" height="17" viewBox="0 0 16 17" fill="none" xmlns="http://www.w3.org/2000/svg">
<path d="M2.65278 5.98171C2.03737 6.70922 1.56777 7.564 1.28906 8.50099C2.14993 11.392 4.82823 13.5 7.99889 13.5C8.66061 13.5 9.30088 13.4082 9.90766 13.2366M4.15124 4.65175C5.25541 3.92372 6.57796 3.5 7.99948 3.5C11.1701 3.5 13.8484 5.60803 14.7093 8.49901C14.2347 10.0946 13.2065 11.4518 11.8475 12.348M4.15124 4.65175L1.99949 2.5M4.15124 4.65175L6.58528 7.08579M11.8475 12.348L13.9995 14.5M11.8475 12.348L9.4137 9.91421M9.4137 9.91421C9.77563 9.55228 9.99949 9.05228 9.99949 8.5C9.99949 7.39543 9.10406 6.5 7.99949 6.5C7.44721 6.5 6.94721 6.72386 6.58528 7.08579M9.4137 9.91421L6.58528 7.08579" stroke="#004268" stroke-width="1.2" stroke-linecap="round" stroke-linejoin="round"/>
</svg>
